<svg width="4934" height="1816" viewBox="0 0 4934 1816" fill="none" xmlns="http://www.w3.org/2000/svg">
<rect x="0.185547" width="4933" height="1816" fill="white"/>
<path fill-rule="evenodd" clip-rule="evenodd" d="M4156.69 1296.68C4371.35 1296.68 4545.37 1122.66 4545.37 908C4545.37 693.336 4371.35 519.317 4156.69 519.317C3942.02 519.317 3768 693.336 3768 908C3768 1122.66 3942.02 1296.68 4156.69 1296.68ZM4156.69 1408C4432.83 1408 4656.69 1184.14 4656.69 908C4656.69 631.858 4432.83 408 4156.69 408C3880.54 408 3656.69 631.858 3656.69 908C3656.69 1184.14 3880.54 1408 4156.69 1408Z" fill="#00D1FF"/>
<path fill-rule="evenodd" clip-rule="evenodd" d="M4156.68 688.707L4361.59 996.074L4268.97 1057.82L4156.68 889.387L4044.39 1057.82L3951.77 996.074L4156.68 688.707Z" fill="#00D1FF"/>
<path d="M4216.05 1129.92C4216.05 1162.7 4189.47 1189.29 4156.69 1189.29C4123.9 1189.29 4097.32 1162.7 4097.32 1129.92C4097.32 1097.13 4123.9 1070.55 4156.69 1070.55C4189.47 1070.55 4216.05 1097.13 4216.05 1129.92Z" fill="#00D1FF"/>
<g filter="url(#filter0_f)">
<path d="M2966.69 908C2966.69 1184.14 2742.83 1408 2466.69 1408C2190.54 1408 1966.69 1184.14 1966.69 908C1966.69 631.858 2190.54 408 2466.69 408C2742.83 408 2966.69 631.858 2966.69 908Z" fill="black"/>
</g>
<path d="M2966.69 908C2966.69 1184.14 2742.83 1408 2466.69 1408C2190.54 1408 1966.69 1184.14 1966.69 908C1966.69 631.858 2190.54 408 2466.69 408C2742.83 408 2966.69 631.858 2966.69 908Z" fill="white"/>
<path fill-rule="evenodd" clip-rule="evenodd" d="M2466.69 1378.32C2726.43 1378.32 2937 1167.75 2937 908C2937 648.252 2726.43 437.685 2466.69 437.685C2206.94 437.685 1996.37 648.252 1996.37 908C1996.37 1167.75 2206.94 1378.32 2466.69 1378.32ZM2466.69 1408C2742.83 1408 2966.69 1184.14 2966.69 908C2966.69 631.858 2742.83 408 2466.69 408C2190.54 408 1966.69 631.858 1966.69 908C1966.69 1184.14 2190.54 1408 2466.69 1408Z" fill="black"/>
<path fill-rule="evenodd" clip-rule="evenodd" d="M2466.68 708.773L2662.33 1002.25L2588.23 1051.65L2466.68 869.317L2345.13 1051.65L2271.03 1002.25L2466.68 708.773Z" fill="black"/>
<path fill-rule="evenodd" clip-rule="evenodd" d="M2466.69 1129.92C2483.08 1129.92 2496.37 1116.63 2496.37 1100.23C2496.37 1083.84 2483.08 1070.55 2466.69 1070.55C2450.29 1070.55 2437 1083.84 2437 1100.23C2437 1116.63 2450.29 1129.92 2466.69 1129.92ZM2466.69 1262.57C2483.08 1262.57 2496.37 1249.28 2496.37 1232.88C2496.37 1216.49 2483.08 1203.2 2466.69 1203.2C2450.29 1203.2 2437 1216.49 2437 1232.88C2437 1249.28 2450.29 1262.57 2466.69 1262.57Z" fill="black"/>
<g filter="url(#filter1_f)">
<path d="M1276.69 908C1276.69 1184.14 1052.83 1408 776.686 1408C500.543 1408 276.686 1184.14 276.686 908C276.686 631.858 500.543 408 776.686 408C1052.83 408 1276.69 631.858 1276.69 908Z" fill="#00D1FF"/>
</g>
<path d="M1276.69 908C1276.69 1184.14 1052.83 1408 776.686 1408C500.543 1408 276.686 1184.14 276.686 908C276.686 631.858 500.543 408 776.686 408C1052.83 408 1276.69 631.858 1276.69 908Z" fill="white"/>
<path fill-rule="evenodd" clip-rule="evenodd" d="M776.686 1378.32C1036.43 1378.32 1247 1167.75 1247 908C1247 648.252 1036.43 437.685 776.686 437.685C516.938 437.685 306.37 648.252 306.37 908C306.37 1167.75 516.938 1378.32 776.686 1378.32ZM776.686 1408C1052.83 1408 1276.69 1184.14 1276.69 908C1276.69 631.858 1052.83 408 776.686 408C500.543 408 276.686 631.858 276.686 908C276.686 1184.14 500.543 1408 776.686 1408Z" fill="#00D1FF"/>
<path fill-rule="evenodd" clip-rule="evenodd" d="M776.68 708.773L972.329 1002.25L898.232 1051.65L776.68 869.317L655.128 1051.65L581.031 1002.25L776.68 708.773Z" fill="#00D1FF"/>
<path fill-rule="evenodd" clip-rule="evenodd" d="M776.685 1129.92C793.079 1129.92 806.369 1116.63 806.369 1100.23C806.369 1083.84 793.079 1070.55 776.685 1070.55C760.29 1070.55 747 1083.84 747 1100.23C747 1116.63 760.29 1129.92 776.685 1129.92ZM776.685 1262.57C793.079 1262.57 806.369 1249.28 806.369 1232.88C806.369 1216.49 793.079 1203.2 776.685 1203.2C760.29 1203.2 747 1216.49 747 1232.88C747 1249.28 760.29 1262.57 776.685 1262.57Z" fill="#00D1FF"/>
<defs>
<filter id="filter0_f" x="1816.69" y="258" width="1300" height="1300" filterUnits="userSpaceOnUse" color-interpolation-filters="sRGB">
<feFlood flood-opacity="0" result="BackgroundImageFix"/>
<feBlend mode="normal" in="SourceGraphic" in2="BackgroundImageFix" result="shape"/>
<feGaussianBlur stdDeviation="75" result="effect1_foregroundBlur"/>
</filter>
<filter id="filter1_f" x="126.686" y="258" width="1300" height="1300" filterUnits="userSpaceOnUse" color-interpolation-filters="sRGB">
<feFlood flood-opacity="0" result="BackgroundImageFix"/>
<feBlend mode="normal" in="SourceGraphic" in2="BackgroundImageFix" result="shape"/>
<feGaussianBlur stdDeviation="75" result="effect1_foregroundBlur"/>
</filter>
</defs>
</svg>
